<?xml version="1.0" encoding="UTF-8"?>
<svg xmlns="http://www.w3.org/2000/svg" xmlns:xlink="http://www.w3.org/1999/xlink" width="512" height="512" viewBox="0 0 57 58" version="1.1"><!-- Generator: Sketch 51.3 (57544) - http://www.bohemiancoding.com/sketch --><title>029 - Engine</title><desc>Created with Sketch.</desc><defs/><g id="Page-1" stroke="none" stroke-width="1" fill="none" fill-rule="evenodd"><g id="029---Engine" transform="translate(-1.000000, 0.000000)" fill-rule="nonzero"><path d="M38.173,13.01 L39.883,8.88 L41.593,4.74 L42.629,2.073 C42.9695558,1.25195041 43.6224574,0.599906092 44.4439537,0.260429306 C45.26545,-0.0790474805 46.1881858,-0.0781227129 47.009,0.263 L53.209,2.833 C54.0330955,3.17013621 54.6886484,3.82209818 55.0303062,4.6443294 C55.3719639,5.46656062 55.3714937,6.39111667 55.029,7.213 L53.993,9.87 L52.283,14.01 L50.573,18.14 L48,24.34 L35.417,22 L38.173,13.01 Z" id="Shape" fill="#7F8C8D"/><path d="M36.69,19.66 L39.74,20.92 L43.869,22.632 L48.112,24.39 C48.3571011,24.4915282 48.5518132,24.6862909 48.6532776,24.9314184 C48.754742,25.1765459 48.7546421,25.4519461 48.653,25.697 L46.853,30.049 C46.6419638,30.5592478 46.057311,30.8018831 45.547,30.591 L41.3,28.833 L37.17,27.12 L32.926,25.363 C32.680831,25.2612886 32.4861571,25.066279 32.3848683,24.8209351 C32.2835795,24.5755912 32.2839867,24.3000435 32.386,24.055 L32.75,23.18 L36.69,19.66 Z" id="Shape" fill="#5E5F62"/><path d="M40,36 L40,55 L18,55 L18,36 L28.32,32.12 C28.7592207,31.9600286 29.2407793,31.9600286 29.68,32.12 L40,36 Z" id="Shape" fill="#4482C3"/><rect id="Rectangle-path" fill="#285680" x="15" y="53" width="28" height="5" rx="2"/><path d="M40,32 L40,36 L29.68,32.12 C29.2407793,31.9600286 28.7592207,31.9600286 28.32,32.12 L18,36 L18,32 L28.32,28.12 C28.7592207,27.9600286 29.2407793,27.9600286 29.68,28.12 L40,32 Z" id="Shape" fill="#285680"/><circle id="Oval" fill="#285680" cx="29" cy="41" r="4"/><path d="M18,42 L21,42 C21.5522847,42 22,42.4477153 22,43 L22,47 C22,47.5522847 21.5522847,48 21,48 L18,48 L18,42 Z" id="Shape" fill="#F0C419"/><path d="M30.624,50 L28,50 C27.4477153,50 27,49.5522847 27,49 C27,48.4477153 27.4477153,48 28,48 L30.624,48 L37.9,41.627 C38.3172597,41.2959735 38.9207542,41.3500864 39.2724676,41.7500638 C39.624181,42.1500412 39.6006705,42.7555006 39.219,43.127 L31.942,49.5 C31.5776219,49.8206254 31.1093546,49.9982686 30.624,50 Z" id="Shape" fill="#90BAE1"/><circle id="Oval" fill="#285680" cx="40" cy="41" r="2"/><path d="M18.33,21.92 C17.8564652,21.91582 17.450787,21.5800675 17.3581481,21.1156639 C17.2655093,20.6512603 17.5113126,20.1855509 17.947,20 L20.938,18.76 C21.4315175,18.606994 21.9603374,18.855156 22.1580329,19.3325309 C22.3557284,19.8099059 22.1571953,20.3592869 21.7,20.6 L18.71,21.84 C18.5897777,21.891241 18.4606773,21.91842 18.33,21.92 Z" id="Shape" fill="#000000"/><path d="M24.667,22.417 L10.06,24.34 L7.49,18.14 L5.78,14.01 L4.07,9.87 L3.034,7.213 C2.69150625,6.39111667 2.69103612,5.46656062 3.03269384,4.6443294 C3.37435156,3.82209818 4.02990452,3.17013621 4.854,2.833 L11.054,0.263 C11.8748142,-0.0781227129 12.79755,-0.0790474805 13.6190463,0.260429306 C14.4405426,0.599906092 15.0934442,1.25195041 15.434,2.073 L16.47,4.74 L18.18,8.88 L19.89,13.01 L24.667,22.417 Z" id="Shape" fill="#7F8C8D"/><path d="M21.32,19.68 L18.33,20.92 L14.193,22.632 L9.95,24.39 C9.70489888,24.4915282 9.51018684,24.6862909 9.40872243,24.9314184 C9.30725802,25.1765459 9.30735787,25.4519461 9.409,25.697 L11.209,30.049 C11.4200362,30.5592478 12.004689,30.8018831 12.515,30.591 L16.759,28.833 L20.9,27.12 L25.138,25.362 C25.6445593,25.1505871 25.8860185,24.5703711 25.679,24.062 L25.33,23.215 L21.32,19.68 Z" id="Shape" fill="#5E5F62"/><path d="M2,11.733 C1.52275219,11.7332902 1.11181021,11.3962981 1.01863529,10.928234 C0.925460371,10.4601699 1.17602285,9.99149579 1.617,9.809 L18.151,2.96 C18.6613111,2.74847496 19.2464749,2.99068891 19.458,3.50100001 C19.669525,4.01131111 19.4273111,4.59647493 18.917,4.808 L2.383,11.657 C2.26146267,11.7069069 2.13138473,11.7327188 2,11.733 Z" id="Shape" fill="#5E5F62"/><path d="M3.712,15.867 C3.23475219,15.8672902 2.82381021,15.5302981 2.73063529,15.062234 C2.63746037,14.5941699 2.88802285,14.1254958 3.329,13.943 L19.864,7.094 C20.3743111,6.88247494 20.9594749,7.12468889 21.171,7.635 C21.3825251,8.14531111 21.1403111,8.73047494 20.63,8.942 L4.1,15.791 C3.97690629,15.8415466 3.84506723,15.8673708 3.712,15.867 Z" id="Shape" fill="#5E5F62"/><path d="M5.42,20 C4.94350677,19.9996192 4.53346756,19.6630905 4.44015971,19.1958222 C4.34685186,18.728554 4.59619646,18.2603543 5.036,18.077 L19.885,11.933 C20.2167703,11.796163 20.5964266,11.8476031 20.8798234,12.0677898 C21.1632201,12.2879765 21.3068954,12.6431418 21.2562995,12.9984388 C21.2057036,13.3537358 20.9685959,13.6546759 20.635,13.787 L20.265,13.937 L5.8,19.923 C5.67967788,19.9735636 5.55051444,19.9997362 5.42,20 Z" id="Shape" fill="#5E5F62"/><path d="M22.26,30.4 L20.9,27.12 L18.33,20.92 L18.24,20.7 C17.8113287,19.6817039 16.6417302,19.1995793 15.62,19.62 L15.18,19.8 C14.1621694,20.2236311 13.6791059,21.3910346 14.1,22.41 L14.19,22.63 L16.76,28.83 L18.06,31.98 L22.26,30.4 Z" id="Shape" fill="#BDC3C7"/><path d="M56.062,11.733 C55.9309468,11.7326401 55.8012112,11.7068288 55.68,11.657 L39.145,4.808 C38.6346889,4.59675108 38.3922511,4.01181111 38.6035,3.5015 C38.8147489,2.99118889 39.3996889,2.74875108 39.91,2.96 L56.445,9.809 C56.8859771,9.99149579 57.1365396,10.4601699 57.0433647,10.928234 C56.9501898,11.3962981 56.5392478,11.7332902 56.062,11.733 Z" id="Shape" fill="#5E5F62"/><path d="M54.35,15.867 C54.2186153,15.8667188 54.0885373,15.8409069 53.967,15.791 L37.433,8.942 C36.9226889,8.73019878 36.6806988,8.14481111 36.8925,7.63450002 C37.1043012,7.12418893 37.6896889,6.88219883 38.2,7.094 L54.734,13.943 C55.1748033,14.125424 55.4253662,14.5938174 55.3324619,15.0617435 C55.2395577,15.5296696 54.8290598,15.8668129 54.352,15.867 L54.35,15.867 Z" id="Shape" fill="#5E5F62"/><path d="M52.64,20 C52.508139,20.0002684 52.3775636,19.9740853 52.256,19.923 L37.356,13.752 C37.0156607,13.6215009 36.7732847,13.3161572 36.7234223,12.955083 C36.6735599,12.5940088 36.8241102,12.2344041 37.1163439,12.0165501 C37.4085775,11.7986961 37.7961998,11.7571045 38.128,11.908 L38.558,12.087 L53.025,18.077 C53.4649766,18.2604268 53.7143199,18.7289067 53.6207415,19.1963123 C53.5271632,19.6637178 53.116681,20.0000954 52.64,20 Z" id="Shape" fill="#5E5F62"/><path d="M35.8,30.42 L37.17,27.12 L39.74,20.92 L39.83,20.7 C40.2536311,19.6821694 41.4210346,19.1991059 42.44,19.62 L42.88,19.8 C43.8978306,20.2236311 44.3808941,21.3910346 43.96,22.41 L43.87,22.63 L41.3,28.83 L39.99,32 L35.8,30.42 Z" id="Shape" fill="#BDC3C7"/><circle id="Oval" fill="#BDC3C7" cx="29" cy="15" r="9"/><circle id="Oval" fill="#95A5A5" cx="29" cy="15" r="3"/></g></g></svg>
