<svg height="496pt" viewBox="0 0 496 496" width="496pt" xmlns="http://www.w3.org/2000/svg"><path d="m243.871094 464h-183.742188c-15.511718 0-28.128906-12.617188-28.128906-28.128906v-247.742188c0-15.511718 12.617188-28.128906 28.128906-28.128906 3.566406 0 7.078125.671875 10.429688 2l183.769531 73.503906c10.742187 4.296875 17.679687 14.542969 17.679687 26.121094v174.246094c-.007812 15.511718-12.625 28.128906-28.136718 28.128906zm0 0" fill="#f0bc5e"/><path d="m408.390625 448h-.78125c-21.839844 0-39.609375-17.769531-39.609375-39.609375 0-6.871094 1.808594-13.671875 5.214844-19.648437l34.785156-60.871094 34.785156 60.863281c3.40625 5.984375 5.214844 12.777344 5.214844 19.65625 0 21.839844-17.769531 39.609375-39.609375 39.609375zm0 0" fill="#f0bc5e"/><path d="m152 265.574219-46.59375 69.890625c-6.148438 9.230468-9.40625 19.976562-9.40625 31.0625v1.472656c0 30.871094 25.121094 56 56 56s56-25.128906 56-56v-1.472656c0-11.09375-3.257812-21.832032-9.40625-31.0625zm40 102.425781c0 22.054688-17.945312 40-40 40s-40-17.945312-40-40v-1.472656c0-7.917969 2.328125-15.589844 6.71875-22.183594l33.28125-49.917969 33.28125 49.917969c4.390625 6.59375 6.71875 14.265625 6.71875 22.183594zm0 0"/><path d="m144 368v-1.472656c0-1.574219.464844-3.113282 1.335938-4.421875l-13.304688-8.890625c-2.640625 3.953125-4.03125 8.5625-4.03125 13.3125v1.472656c0 13.230469 10.769531 24 24 24v-16c-4.40625 0-8-3.585938-8-8zm0 0"/><path d="m286.9375 111.886719-62.9375-44.054688v-43.832031c0-13.230469-10.769531-24-24-24h-96c-13.230469 0-24 10.769531-24 24v43.832031l-62.9375 44.054688c-10.6875 7.480469-17.0625 19.738281-17.0625 32.777343v311.335938c0 22.054688 17.945312 40 40 40h224c22.054688 0 40-17.945312 40-40v-311.335938c0-13.039062-6.375-25.296874-17.0625-32.777343zm-190.9375-47.886719v-16h16v16zm32-16h16v16h-16zm32 0h16v16h-16zm32 0h16v16h-16zm-88-32h96c4.40625 0 8 3.59375 8 8v8h-112v-8c0-4.40625 3.59375-8 8-8zm-77.769531 109 64.289062-45h122.953125l64.289063 45c6.40625 4.488281 10.238281 11.832031 10.238281 19.664062v.078126c-11.832031-10.574219-27.207031-16.742188-43.777344-16.742188h-184.445312c-16.570313 0-31.945313 6.167969-43.777344 16.742188v-.078126c0-7.832031 3.832031-15.175781 10.230469-19.664062zm237.769531 355h-224c-13.230469 0-24-10.769531-24-24v-285.855469c8.734375-16.136719 25.320312-26.144531 43.777344-26.144531h184.445312c14.21875 0 27.363282 5.910156 36.640625 16h-56.863281v16h64v16h-64v16h64v248c0 13.230469-10.769531 24-24 24zm0 0"/><path d="m64 216h72v16h-72zm0 0"/><path d="m64 248h72v16h-72zm0 0"/><path d="m486.398438 276.808594-22.398438-16.808594v-36h-24.695312l-14.617188-160.753906c-.785156-8.695313-7.960938-15.246094-16.6875-15.246094s-15.902344 6.550781-16.6875 15.246094l-14.617188 160.753906h-24.695312v36l-22.398438 16.800781c-6.007812 4.503907-9.601562 11.679688-9.601562 19.199219v176c0 13.230469 10.769531 24 24 24h128c13.230469 0 24-10.769531 24-24v-176c0-7.519531-3.59375-14.695312-9.601562-19.191406zm-38.398438-20.808594h-16v-16h16zm-32-16v16h-16v-16zm-8.753906-175.3125c.074218-.792969 1.441406-.792969 1.507812 0l14.484375 159.3125h-30.476562zm-23.246094 175.3125v16h-16v-16zm88 240h-128c-4.40625 0-8-3.585938-8-8v-160h96v-16h-96c0-2.503906 1.191406-4.894531 3.199219-6.398438l23.472656-17.601562h90.664063l23.472656 17.609375c2 1.496094 3.191406 3.886719 3.191406 6.390625h-32v16h32v160c0 4.414062-3.59375 8-8 8zm0 0"/></svg>