<?xml version="1.0" encoding="iso-8859-1"?>
<!-- Generator: Adobe Illustrator 19.0.0, SVG Export Plug-In . SVG Version: 6.00 Build 0)  -->
<svg version="1.1" id="Layer_1" xmlns="http://www.w3.org/2000/svg" xmlns:xlink="http://www.w3.org/1999/xlink" x="0px" y="0px"
	 viewBox="0 0 512 512" style="enable-background:new 0 0 512 512;" xml:space="preserve">
<rect x="264.067" y="56.618" transform="matrix(-0.7071 -0.7071 0.7071 -0.7071 452.7513 525.7066)" style="fill:#AAB1C6;" width="142.371" height="224.935"/>
<rect x="188.736" y="112.005" transform="matrix(-0.7071 0.7071 -0.7071 -0.7071 609.6636 17.5201)" style="opacity:0.1;enable-background:new    ;" width="224.935" height="46.041"/>
<g>
	<path style="fill:#707487;" d="M295.556,102.733c-6.159-6.159-7.435-15.975-2.546-23.612c5.644-8.818,17.367-11.391,26.185-5.747
		l129.3,82.758c8.816,5.641,11.392,17.367,5.747,26.185c-5.645,8.817-17.367,11.391-26.185,5.747l-129.301-82.759
		C297.577,104.549,296.507,103.684,295.556,102.733z"/>
	<path style="fill:#707487;" d="M249.13,149.158c-6.159-6.159-7.435-15.975-2.546-23.612c5.644-8.818,17.367-11.391,26.185-5.747
		l129.3,82.758c8.816,5.641,11.392,17.367,5.747,26.185c-5.645,8.817-17.367,11.391-26.185,5.747l-129.3-82.758
		C251.15,150.974,250.082,150.11,249.13,149.158z"/>
	<path style="fill:#707487;" d="M202.704,195.584c-6.159-6.159-7.435-15.975-2.546-23.613c5.644-8.818,17.367-11.391,26.185-5.747
		l129.3,82.758c8.816,5.641,11.392,17.367,5.747,26.185c-5.645,8.817-17.367,11.391-26.185,5.747l-129.3-82.758
		C204.724,197.401,203.656,196.536,202.704,195.584z"/>
</g>
<rect x="160.367" y="238.595" transform="matrix(0.7071 0.7071 -0.7071 0.7071 258.0159 -86.5292)" style="fill:#FFB64D;" width="146.181" height="59.186"/>
<g>
	
		<rect x="182.478" y="238.176" transform="matrix(-0.7071 0.7071 -0.7071 -0.7071 536.5471 271.3714)" style="fill:#FFD782;" width="59.186" height="17.265"/>
	
		<rect x="225.254" y="280.936" transform="matrix(0.7071 -0.7071 0.7071 0.7071 -130.1131 265.017)" style="fill:#FFD782;" width="59.186" height="17.265"/>
</g>
<rect x="27.236" y="408.28" transform="matrix(-0.7071 -0.7071 0.7071 -0.7071 -215.9515 798.8874)" style="fill:#AAB1C6;" width="60.487" height="71.778"/>
<path style="fill:#FFB64D;" d="M25.483,433.398L8.858,450.023c-11.811,11.811-11.811,30.961,0,42.772l0,0
	c11.811,11.811,30.961,11.811,42.772,0l16.626-16.626L25.483,433.398z"/>
<path style="opacity:0.1;enable-background:new    ;" d="M28.392,469.558l1.858-1.858l14.768-14.768l35.986-35.986L61.47,397.412
	l-35.986,35.987l-14.768,14.768l-1.858,1.858c-11.811,11.811-11.811,30.961,0,42.772l0,0c3.52,3.52,7.695,5.982,12.13,7.405
	C17.638,489.753,20.102,477.849,28.392,469.558z"/>
<path style="fill:#AAB1C6;" d="M177.162,253.748L127.61,303.3c-16.11,16.11-16.109,42.228,0,58.337l12.406,12.406
	c16.109,16.109,42.228,16.11,58.337,0l49.552-49.552L177.162,253.748z"/>
<path style="opacity:0.1;enable-background:new    ;" d="M152.028,327.717l49.552-49.552l-24.417-24.417L127.611,303.3
	c-16.109,16.109-16.11,42.228,0,58.337l12.406,12.406c2.059,2.059,4.283,3.851,6.628,5.383
	C136.185,363.43,137.978,341.768,152.028,327.717z"/>
<path style="fill:#AAB1C6;" d="M465.256,59.449l-20.361-20.361c-10.129-10.129-26.552-10.129-36.683,0l-21.949,21.949l57.043,57.043
	l21.949-21.949C475.385,86.001,475.385,69.578,465.256,59.449z"/>
<path style="opacity:0.1;enable-background:new    ;" d="M461.173,55.366l-16.278-16.278c-10.129-10.129-26.552-10.129-36.681,0
	l-21.949,21.949l16.278,16.278l21.948-21.949C434.62,45.237,451.043,45.237,461.173,55.366z"/>
<g>
	<path style="fill:#707487;" d="M465.122,148.528c-2.209,0-4.419-0.843-6.104-2.529c-3.371-3.371-3.371-8.838,0-12.208
		l24.825-24.825c14.533-14.533,14.533-38.181,0-52.714l-17.876-17.876c-3.371-3.371-3.371-8.837,0-12.208
		c3.371-3.371,8.838-3.371,12.208,0l17.876,17.876c21.266,21.266,21.266,55.866,0,77.131l-24.825,24.825
		C469.541,147.686,467.331,148.528,465.122,148.528z"/>
	<path style="fill:#707487;" d="M158.993,393.019l-50.359-50.359c-5.629-5.629-14.755-5.629-20.384,0
		c-5.629,5.629-5.629,14.755,0,20.384l50.359,50.359c5.629,5.629,14.755,5.629,20.384,0
		C164.622,407.774,164.622,398.649,158.993,393.019z"/>
</g>
<path style="fill:#AAB1C6;" d="M138.609,413.403L88.25,363.044c-5.629-5.629-14.755-5.629-20.384,0
	c-5.629,5.629-5.629,14.755,0,20.384l50.359,50.359c5.629,5.629,14.755,5.629,20.384,0
	C144.238,428.158,144.238,419.032,138.609,413.403z"/>
<path style="fill:#707487;" d="M118.227,433.787l-50.359-50.359c-5.629-5.629-14.755-5.629-20.384,0
	c-5.629,5.629-5.629,14.755,0,20.384l50.359,50.359c5.629,5.629,14.755,5.629,20.384,0
	C123.855,448.541,123.855,439.415,118.227,433.787z"/>
<rect x="325.559" y="66.765" transform="matrix(-0.7071 -0.7071 0.7071 -0.7071 644.7589 446.1812)" style="fill:#FFB64D;" width="178.456" height="45.583"/>
<g>
</g>
<g>
</g>
<g>
</g>
<g>
</g>
<g>
</g>
<g>
</g>
<g>
</g>
<g>
</g>
<g>
</g>
<g>
</g>
<g>
</g>
<g>
</g>
<g>
</g>
<g>
</g>
<g>
</g>
</svg>
