<?xml version="1.0" encoding="UTF-8"?>
<svg xmlns="http://www.w3.org/2000/svg" xmlns:xlink="http://www.w3.org/1999/xlink" width="512" height="512" viewBox="0 0 58 58" version="1.1"><!-- Generator: Sketch 51.3 (57544) - http://www.bohemiancoding.com/sketch --><title>035 - Tyre Wall</title><desc>Created with Sketch.</desc><defs/><g id="Page-1" stroke="none" stroke-width="1" fill="none" fill-rule="evenodd"><g id="035---Tyre-Wall" transform="translate(-1.000000, 0.000000)" fill-rule="nonzero"><path d="M57.77,9.21 C57.74,9.14 57.72,9.08 57.69,9.02 C57.69,4.04 47.01,0 33.84,0 C20.67,0 9.99,4.04 9.99,9.02 C9.0827322,11.023749 8.65802808,13.2123453 8.75,15.41 C8.77,15.92 8.81,16.44 8.87,16.96 C4.76,18.59 2.25,20.79 2.25,23.2 C1.60952749,24.6205667 1.21071209,26.1380931 1.07,27.69 C0.931633906,28.9323424 0.968663153,30.1879705 1.18,31.42 C1.49842228,33.1467002 2.03260879,34.826532 2.77,36.42 C3.10603864,37.1494088 3.57388282,37.810493 4.15,38.37 C4.55716258,38.7503685 5.00679401,39.0825589 5.49,39.36 C4.88011279,41.3930844 4.76017587,43.5416686 5.14,45.63 C5.34358321,46.7241359 5.62088176,47.8032616 5.97,48.86 C6.24231219,49.9022232 6.71065889,50.8830363 7.35,51.75 C8.36997704,52.8722572 9.60868851,53.7740664 10.99,54.4 C12.5248388,55.1557515 14.1289146,55.7618845 15.78,56.21 C17.7490243,56.7587762 19.7538736,57.1697703 21.78,57.44 C24.0638699,57.7585077 26.3645239,57.9421593 28.67,57.99 C29.13,58 29.59,58 30.05,58 C35.7646191,58.1342673 41.4572989,57.2470085 46.86,55.38 C48.4105562,54.8472239 49.8834454,54.1107793 51.24,53.19 C54.1,51.14 55.11,46.64 55.15,43.33 C55.1691907,41.2795418 54.7426884,39.2493911 53.9,37.38 C53.9,35.74 52.75,34.21 50.74,32.89 C50.88,32.19 50.99,31.49 51.08,30.81 C51.2467674,29.5244207 51.2333042,28.2218576 51.04,26.94 C53.4262821,26.2147029 55.4801627,24.6707512 56.84,22.58 C57.5507883,21.2468446 58.0788643,19.8240666 58.41,18.35 C59.2182508,15.3168617 58.9930633,12.1009019 57.77,9.21 Z" id="Shape" fill="#2C3E50"/><path d="M53.9,37.38 C54.7426884,39.2493911 55.1691907,41.2795418 55.15,43.33 C55.11,46.64 54.1,51.14 51.24,53.19 C49.8834454,54.1107793 48.4105562,54.8472239 46.86,55.38 C41.4572989,57.2470085 35.7646191,58.1342673 30.05,58 C29.59,58 29.13,58 28.67,57.99 C26.3645239,57.9421593 24.0638699,57.7585077 21.78,57.44 C19.7538736,57.1697703 17.7490243,56.7587762 15.78,56.21 C14.1289146,55.7618845 12.5248388,55.1557515 10.99,54.4 C9.60868851,53.7740664 8.36997704,52.8722572 7.35,51.75 C6.71065889,50.8830363 6.24231219,49.9022232 5.97,48.86 C5.62088176,47.8032616 5.34358321,46.7241359 5.14,45.63 C4.76017587,43.5416686 4.88011279,41.3930844 5.49,39.36 C5.73,39.51 5.98,39.65 6.22,39.79 C6.71,40.07 7.21,40.32 7.72,40.55 C7.73,40.56 7.73,40.56 7.74,40.56 L53.9,37.38 Z" id="Shape" fill="#2C3E50"/><path d="M50.74,32.89 C52.75,34.21 53.9,35.74 53.9,37.38 C53.9,42.36 43.22,46.4 30.05,46.4 C19.85,46.4 11.15,43.98 7.74,40.56 L50.74,32.89 Z" id="Shape" fill="#35495E"/><path d="M45.36,28.52 C44.4668086,28.9761615 43.5448576,29.3736694 42.6,29.71 L42.59,29.71 C37.2722361,31.4623563 31.6983144,32.3107823 26.1,32.22 C21.8789626,32.2482775 17.6684555,31.7953544 13.55,30.87 C6.77,29.28 2.25,26.44 2.25,23.2 C2.25,20.79 4.76,18.59 8.87,16.96 L45.36,28.52 Z" id="Shape" fill="#35495E"/><path d="M51.08,30.81 C50.99,31.49 50.88,32.19 50.74,32.89 C50.4200721,35.0601317 49.3813131,37.0601829 47.79,38.57 C46.6566527,39.4623756 45.4046481,40.1927116 44.07,40.74 C40.4127577,42.2236796 36.5526965,43.1473973 32.62,43.48 C30.4541808,43.7082022 28.2778077,43.821694 26.1,43.82 C24.41,43.82 22.72,43.76 21.03,43.62 C18.177778,43.4073984 15.3500326,42.9422426 12.58,42.23 C10.9212404,41.8149119 9.30178725,41.2561337 7.74,40.56 C7.73,40.56 7.73,40.56 7.72,40.55 C7.21,40.32 6.71,40.07 6.22,39.79 C5.98,39.65 5.73,39.51 5.49,39.36 C5.00679401,39.0825589 4.55716258,38.7503685 4.15,38.37 C3.57388282,37.810493 3.10603864,37.1494088 2.77,36.42 C2.03260879,34.826532 1.49842228,33.1467002 1.18,31.42 C0.968663153,30.1879705 0.931633906,28.9323424 1.07,27.69 C1.21071209,26.1380931 1.60952749,24.6205667 2.25,23.2 C2.25,26.44 6.77,29.28 13.55,30.87 C17.6684555,31.7953544 21.8789626,32.2482775 26.1,32.22 C31.6983144,32.3107823 37.2722361,31.4623563 42.59,29.71 L42.6,29.71 C43.5448576,29.3736694 44.4668086,28.9761615 45.36,28.52 C45.94,28.4 46.52,28.27 47.1,28.12 C48.4352969,27.8041214 49.7508942,27.41011 51.04,26.94 C51.2333042,28.2218576 51.2467674,29.5244207 51.08,30.81 Z" id="Shape" fill="#2C3E50"/><path d="M57.69,9.02 C57.72,9.08 57.74,9.14 57.77,9.21 C58.9930633,12.1009019 59.2182508,15.3168617 58.41,18.35 C58.0788643,19.8240666 57.5507883,21.2468446 56.84,22.58 C55.4801627,24.6707512 53.4262821,26.2147029 51.04,26.94 C49.7508942,27.41011 48.4352969,27.8041214 47.1,28.12 C46.52,28.27 45.94,28.4 45.36,28.52 C41.5693211,29.2924242 37.7084769,29.6677841 33.84,29.64 C29.5435888,29.6783231 25.2575497,29.2117927 21.07,28.25 C17.79,27.46 14.11,26.53 11.75,23.94 C10.0926864,21.9662925 9.0866798,19.5281237 8.87,16.96 C8.81,16.44 8.77,15.92 8.75,15.41 C8.65802808,13.2123453 9.0827322,11.023749 9.99,9.02 L57.69,9.02 Z" id="Shape" fill="#2C3E50"/><path d="M33.84,0 C20.66,0 9.99,4.04 9.99,9.02 C9.99,14 20.66,18.04 33.84,18.04 C47.02,18.04 57.69,14.01 57.69,9.02 C57.69,4.03 47.01,0 33.84,0 Z" id="Shape" fill="#35495E"/><path d="M45.08,9.6 C41.907818,10.9326622 38.5007397,11.616118 35.06,11.61 L35.05,11.61 C34.65,11.6 34.25,11.6 33.84,11.6 C33.43,11.6 33.02,11.6 32.63,11.61 L32.61,11.61 C29.1727219,11.6138116 25.7693654,10.9304204 22.6,9.6 C22.3753214,9.49428017 22.2319121,9.26830859 22.2319121,9.02 C22.2319121,8.77169141 22.3753214,8.54571983 22.6,8.44 C24.56,7.49 28.39,6.41 33.84,6.41 C37.6883991,6.27960101 41.5203396,6.97166854 45.08,8.44 C45.3006352,8.54907028 45.4402789,8.77387767 45.4402789,9.02 C45.4402789,9.26612233 45.3006352,9.49092972 45.08,9.6 Z" id="Shape" fill="#2C2F38"/><path d="M17,11 C16.8188366,11.000064 16.6411006,10.950616 16.486,10.857 C14.906,9.909 14.7,8.865 14.805,8.157 C15.219,5.373 21.763,3.529 23.758,3.03 C24.1055751,2.94028431 24.4745715,3.04374869 24.7248327,3.30109412 C24.975094,3.55843954 25.0682206,3.93017958 24.9688402,4.27511565 C24.8694598,4.62005172 24.592821,4.8852577 24.244,4.97 C20.469,5.915 16.914,7.57 16.783,8.451 C16.772,8.527 16.936,8.795 17.516,9.143 C17.9011623,9.37459887 18.0845031,9.83469981 17.9641796,10.2677244 C17.8438561,10.7007489 17.4494307,11.0003074 17,11 Z" id="Shape" fill="#547580"/><circle id="Oval" fill="#547580" cx="20" cy="12" r="1"/></g></g></svg>
